<?xml version="1.0" standalone="no"?><!DOCTYPE svg PUBLIC "-//W3C//DTD SVG 1.1//EN" "http://www.w3.org/Graphics/SVG/1.1/DTD/svg11.dtd"><svg t="1547862723540" class="icon" style="" viewBox="0 0 1109 1024" version="1.1" xmlns="http://www.w3.org/2000/svg" p-id="4499" xmlns:xlink="http://www.w3.org/1999/xlink" width="216.6015625" height="200"><defs><style type="text/css"></style></defs><path d="M767.999733 256.000053v682.66624H85.333493V256.000053h682.66624m7.466662-85.33328H77.866831A77.653285 77.653285 0 0 0 0.000213 248.533391v697.599564A77.653285 77.653285 0 0 0 77.866831 1023.999573h697.599564A77.653285 77.653285 0 0 0 853.333013 946.132955v-697.599564A77.653285 77.653285 0 0 0 775.466395 170.666773z" fill="" p-id="4500"></path><path d="M930.772965 0.000213H177.706769A92.799942 92.799942 0 0 0 85.333493 85.333493h845.439472a7.679995 7.679995 0 0 1 7.893328 7.893329V938.666293a92.799942 92.799942 0 0 0 85.33328-92.373275V93.226822A93.013275 93.013275 0 0 0 930.772965 0.000213zM357.973323 753.279743L341.333333 690.986448h-93.653274l-16.426657 62.293295H164.266777l89.599944-311.893139h81.706616l89.599944 311.893139z m-96.853273-115.626595h67.199958l-33.493312-140.799912z" fill="" p-id="4501"></path><path d="M471.039919 441.386604h90.02661a332.373126 332.373126 0 0 1 56.746632 3.626665 88.106612 88.106612 0 0 1 31.146647 12.159992 82.773282 82.773282 0 0 1 29.653315 36.906644 135.893248 135.893248 0 0 1 10.453326 55.253298v95.573274a136.959914 136.959914 0 0 1-10.453326 55.466632 81.066616 81.066616 0 0 1-29.653315 36.69331 86.826612 86.826612 0 0 1-32.63998 12.373326 303.35981 303.35981 0 0 1-55.253299 3.839998h-90.02661z m69.33329 251.733176h15.99999a65.919959 65.919959 0 0 0 48.213303-14.719991 66.986625 66.986625 0 0 0 14.079991-48.426636v-65.706626a66.346625 66.346625 0 0 0-14.506657-48.213303 66.133292 66.133292 0 0 0-48.213303-14.506657h-15.99999z" fill="" p-id="4502"></path></svg>