<?xml version="1.0" standalone="no"?><!DOCTYPE svg PUBLIC "-//W3C//DTD SVG 1.1//EN" "http://www.w3.org/Graphics/SVG/1.1/DTD/svg11.dtd"><svg t="1551176856338" class="icon" style="" viewBox="0 0 1024 1024" version="1.1" xmlns="http://www.w3.org/2000/svg" p-id="2919" xmlns:xlink="http://www.w3.org/1999/xlink" width="200" height="200"><defs><style type="text/css"></style></defs><path d="M62.541917 65.145719c297.587676-1.026376 595.177398-0.5137 892.76405-0.205684v893.279796c-297.587676 0.361227-595.177398 0.821715-892.76405-0.210801-1.335415-65.045435-0.155543-130.041752-0.5137-195.08821 0.358157-232.590336-0.718361-465.183741 0.5137-697.775101z m44.62843 45.347814c-0.666172 22.520923-0.768503 45.042869-0.666173 67.613934 0.563842 244.852614-0.821715 489.705228 0.666173 734.554772 266.912026 0.571005 533.822005 1.232061 800.681841-0.350994-0.204661-267.173992-0.204661-534.341844 0-801.509696-52.581566-1.743714-105.164155-0.410346-157.74572-0.818645-214.277248 0.358157-428.604638-0.61603-642.936121 0.510629z" fill="#515151" p-id="2920"></path><path d="M494.021022 229.662657c13.285584-9.437953 33.805944-1.282203 36.986379 14.673187 1.641383 80.693834-2.25639 161.54014 1.487887 242.184855 74.281797-1.077541 148.563594 0.102331 222.842321-0.821715 12.263301 0.461511 25.294083-0.61603 36.836977 4.463662 15.029298 10.259668 12.619412 38.114063-5.646604 43.757596-85.155449 0.668219-170.363086-0.103354-255.520581-0.103354-0.255827 81.618902 0.666172 163.339112 0.050142 244.954945-4.308119 14.312984-23.032576 23.700795-36.012192 14.365172-13.951757-8.207939-11.181667-26.574239-12.053523-40.271192 0.871857-72.484871-0.257873-145.023978 0.818644-217.509872-86.285179-3.078105-172.724877-1.436722-259.062243-0.565889-6.720052-9.335622-17.544585-19.339464-12.413728-32.009018 4.821819-17.391089 25.497721-16.622586 39.912012-17.030885 76.949556 0.358157 153.948231 0.613984 230.949976 0.102331 0.358157-73.614601 0.202615-147.180084-0.155543-220.793662 0.975211-12.003382-1.331321-28.314883 10.980076-35.396161z" fill="" p-id="2921"></path></svg>