<?xml version="1.0" standalone="no"?><!DOCTYPE svg PUBLIC "-//W3C//DTD SVG 1.1//EN" "http://www.w3.org/Graphics/SVG/1.1/DTD/svg11.dtd"><svg t="1547543542536" class="icon" style="" viewBox="0 0 1024 1024" version="1.1" xmlns="http://www.w3.org/2000/svg" p-id="2366" xmlns:xlink="http://www.w3.org/1999/xlink" width="200" height="200"><defs><style type="text/css"></style></defs><path d="M108.8 243.2C84.1 243.2 64 263.3 64 288v582.4c0 49.3 40.3 89.6 89.6 89.6H736c24.7 0 44.8-20.1 44.8-44.8 0-24.7-20.1-44.8-44.8-44.8H189.1c-19.6 0-35.5-15.9-35.5-35.5V288c0-24.7-20.1-44.8-44.8-44.8z m44.8 0" p-id="2367"></path><path d="M870.4 64H332.8c-49.3 0-89.6 40.3-89.6 89.6v537.6c0 49.3 40.3 89.6 89.6 89.6h537.6c49.3 0 89.6-40.3 89.6-89.6V153.6c0-49.3-40.3-89.6-89.6-89.6z m-44.8 403.2H646.4v179.2h-89.6V467.2H377.6v-89.6h179.2V198.4h89.6v179.2h179.2v89.6z m0 0" p-id="2368"></path></svg>