<?xml version="1.0" standalone="no"?><!DOCTYPE svg PUBLIC "-//W3C//DTD SVG 1.1//EN" "http://www.w3.org/Graphics/SVG/1.1/DTD/svg11.dtd"><svg t="1547707242819" class="icon" style="" viewBox="0 0 1024 1024" version="1.1" xmlns="http://www.w3.org/2000/svg" p-id="3721" xmlns:xlink="http://www.w3.org/1999/xlink" width="200" height="200"><defs><style type="text/css"></style></defs><path d="M544.905899 691.746133l-205.277867 205.550934a149.504 149.504 0 0 1-106.359467 44.100266c-40.277333 0-77.960533-15.633067-106.359466-44.100266a149.845333 149.845333 0 0 1-44.168534-106.359467c0-40.209067 15.5648-78.0288 44.032-106.359467l205.482667-205.482666a41.233067 41.233067 0 0 0 0-58.5728 41.233067 41.233067 0 0 0-58.504533 0L68.268032 626.0736a231.697067 231.697067 0 0 0-68.266667 164.864c0 62.190933 24.234667 120.832 68.266667 164.795733 43.690667 43.758933 103.082667 68.334933 164.864 68.266667 59.733333 0 119.466667-22.664533 164.864-68.266667l205.482667-205.482666a41.3696 41.3696 0 0 0-58.5728-58.504534zM955.871232 68.266667a233.335467 233.335467 0 0 0-329.728 0L420.524032 273.749333a41.233067 41.233067 0 0 0 0 58.436267 41.3696 41.3696 0 0 0 58.504533 0l205.4144-205.482667a150.664533 150.664533 0 0 1 256.955734 106.2912c0 40.277333-15.701333 78.097067-44.100267 106.359467l-205.550933 205.550933a41.233067 41.233067 0 0 0 29.354666 70.519467c10.922667 0 21.435733-4.369067 29.218134-12.0832l205.482666-205.482667a233.335467 233.335467 0 0 0-0.068266-329.659733zM481.554432 603.136L598.700032 485.922133a41.233067 41.233067 0 1 0-58.436267-58.436266L423.118165 544.768a41.3696 41.3696 0 0 0 58.436267 58.504533v-0.068266z" p-id="3722"></path></svg>