<?xml version="1.0" standalone="no"?><!DOCTYPE svg PUBLIC "-//W3C//DTD SVG 1.1//EN" "http://www.w3.org/Graphics/SVG/1.1/DTD/svg11.dtd"><svg t="1547867273467" class="icon" style="" viewBox="0 0 1024 1024" version="1.1" xmlns="http://www.w3.org/2000/svg" p-id="5281" xmlns:xlink="http://www.w3.org/1999/xlink" width="200" height="200"><defs><style type="text/css"></style></defs><path d="M35.149 375.26c0-18.946 3.147-32.452 9.44-40.528 6.281-8.063 20.271-12.103 41.932-12.103l134.211 0 0 526.318-57.665 0c-15.38 0-30.59-0.171-45.616-0.525-15.026-0.354-25.332-0.523-30.93-0.523-18.868 0.694-32.15-2.466-39.847-9.479-7.684-7.016-11.525-20.351-11.525-40.005L35.149 646.843c0-7.723 1.22-13.505 3.671-17.373 2.439-3.854 7.513-6.49 15.196-7.894 2.806 0 6.648-1.049 11.538-3.16 4.891-2.097 9.782-5.428 14.672-9.991 4.904-4.563 9.086-10.528 12.587-17.896 3.488-7.369 5.245-16.312 5.245-26.84 0-16.141-4.366-28.781-13.112-37.894-8.732-9.126-18.002-14.396-27.784-15.8-7.684-1.402-13.282-3.684-16.77-6.831-3.501-3.16-5.245-8.601-5.245-16.323L35.147 375.26 35.149 375.26zM122.172 275.257l0-27.364c0-14.029 5.415-27.01 16.246-38.942 10.843-11.931 22.552-17.897 35.126-17.897l144.701 0 0 84.204L122.172 275.258 122.172 275.257zM976.689 503.689c-5.599 1.403-9.611 4.379-12.063 8.942-2.438 4.563-3.657 9.649-3.657 15.262 0 5.611 1.219 11.053 3.657 16.311 2.452 5.271 6.465 8.955 12.063 11.054 5.586 2.111 9.965 6.319 13.111 12.64 3.134 6.319 4.892 12.98 5.231 19.995 0.354 7.015-0.524 13.688-2.622 20.009-2.098 6.307-5.231 10.87-9.427 13.675-13.991 8.418-20.979 17.897-20.979 28.427 0 10.528 6.988 21.045 20.979 31.573 2.792 2.11 5.415 5.966 7.854 11.577 2.451 5.612 3.671 11.236 3.671 16.849s-1.39 10.528-4.195 14.738c-2.793 4.208-7.684 6.306-14.672 6.306l-56.617 0c-4.195 0-6.464-0.34-6.817-1.048-0.354-0.695 0.171-1.929 1.573-3.685 1.402-1.758 3.146-3.686 5.244-5.783 2.098-2.11 3.842-4.563 5.245-7.368 3.487-9.834 3.487-18.252 0-25.267-3.501-7.015-9.44-12.98-17.832-17.897-5.586-2.806-9.61-7.198-12.05-13.151-2.451-5.966-3.501-12.115-3.146-18.421 0.341-6.32 1.573-11.933 3.671-16.85s5.231-8.417 9.428-10.528c5.599-2.098 9.794-5.966 12.587-11.578 2.793-5.611 4.195-11.577 4.195-17.896 0-6.308-1.048-12.103-3.146-17.36-2.098-5.271-5.244-8.955-9.439-11.054-5.586-2.806-9.952-7.015-13.1-12.626-3.146-5.626-4.72-11.932-4.72-18.96 0-7.015 1.39-13.859 4.195-20.52 2.793-6.674 7.33-12.103 13.624-16.312 4.195-2.819 7.696-6.674 10.488-11.59 2.794-4.904 4.367-10.176 4.721-15.787 0.341-5.612-0.708-11.053-3.146-16.311-2.452-5.271-6.818-9.65-13.112-13.164-6.988-3.501-12.05-8.588-15.196-15.262-3.147-6.661-4.721-13.505-4.721-20.52 0-7.015 1.573-13.688 4.721-20.008 3.146-6.308 7.514-11.224 13.099-14.738 11.892-6.307 18.356-14.908 19.405-25.777 1.049-10.883 0.171-20.887-2.622-30-2.098-7.028-6.294-13.334-12.588-18.959-6.294-5.612-14.331-8.418-24.112-8.418L382.19 274.209l0-83.154 590.303 0c4.892 0 9.086 1.757 12.588 5.258 3.487 3.514 5.756 7.723 6.805 12.639 1.049 4.904 0.708 9.991-1.049 15.262-1.744 5.258-5.062 9.651-9.952 13.151-4.195 3.514-7.867 8.077-11.014 13.688-3.147 5.612-4.891 11.407-5.245 17.373-0.341 5.966 0.524 11.932 2.623 17.884 2.098 5.966 5.939 10.358 11.538 13.164 7.684 4.209 13.453 10.004 17.294 17.373 3.842 7.369 5.771 14.738 5.771 22.106 0 7.369-1.929 14.201-5.771 20.521-3.841 6.319-9.256 10.882-16.244 13.688-7.698 2.806-13.282 6.831-16.784 12.102-3.488 5.258-5.415 11.053-5.756 17.373-0.354 6.307 1.049 12.457 4.183 18.422 3.146 5.953 8.222 11.04 15.21 15.262 6.988 4.209 12.063 9.821 15.196 16.835 3.146 7.015 4.549 14.043 4.195 21.058-0.341 7.015-2.097 13.506-5.244 19.471C987.703 499.65 982.983 502.98 976.689 503.689L976.689 503.689zM840.38 487.888c-8.379 2.112-14.843 6.149-19.393 12.115-4.55 5.967-6.988 12.103-7.342 18.409-0.342 6.32 1.402 12.64 5.244 18.96 3.842 6.307 9.611 10.87 17.308 13.676 6.988 2.806 12.233 7.015 15.721 12.64 3.501 5.611 5.415 11.577 5.769 17.885 0.354 6.319-0.878 12.285-3.671 17.896-2.792 5.612-6.988 9.834-12.587 12.64-17.465 8.418-26.551 18.593-27.259 30.524-0.695 11.932 5.938 21.398 19.929 28.414 6.281 2.806 11.355 7.197 15.197 13.163s5.939 12.286 6.293 18.946c0.354 6.661-0.878 12.627-3.671 17.897-2.793 5.259-7.343 8.943-13.623 11.054-8.392 2.098-14.855 5.966-19.405 11.578-4.536 5.611-6.988 11.577-7.343 17.897-0.341 6.307 1.402 12.626 5.245 18.946 3.842 6.307 9.965 11.578 18.356 15.786 5.585 2.806 9.61 7.199 12.05 13.151 2.452 5.966 3.317 11.761 2.622 17.373-0.695 5.611-2.622 10.699-5.77 15.262-3.146 4.563-7.514 6.845-13.099 6.845L282.594 848.945 282.594 322.629l554.652 0c5.585 0 9.952 2.282 13.099 6.845 3.147 4.563 4.891 9.65 5.244 15.262 0.354 5.612-0.878 11.224-3.671 16.848-2.793 5.612-7.343 9.467-13.637 11.578-6.28 2.098-11.354 5.612-15.195 10.528-3.843 4.904-6.11 10.345-6.819 16.311-0.694 5.966 0.709 11.749 4.196 17.373 3.501 5.612 9.44 9.82 17.818 12.626 6.294 2.806 11.369 7.015 15.211 12.627 3.841 5.611 5.938 11.407 6.293 17.373 0.341 5.965-1.049 11.577-4.196 16.835C852.442 482.107 847.368 485.791 840.38 487.888L840.38 487.888zM587.704 558.417c-3.501 0-7.173-0.354-11.014-1.048-3.842-0.695-4.721-2.807-2.623-6.32 0.694-1.403 4.025-6.308 9.965-14.737 5.94-8.418 12.574-17.36 19.917-26.84 7.343-9.468 14.161-18.423 20.441-26.841 6.293-8.417 10.148-13.688 11.538-15.786 3.501-5.611 1.402-12.286-6.294-20.008-1.39-1.402-4.182-3.5-8.378-6.306-4.196-2.806-8.038-4.917-11.538-6.32-5.586-2.112-9.611-2.452-12.063-1.05-2.438 1.404-5.415 4.563-8.903 9.467-1.402 2.111-4.902 7.198-10.488 15.262-5.586 8.076-11.538 16.679-17.819 25.791-6.293 9.126-12.063 17.373-17.307 24.741-5.246 7.37-8.209 11.749-8.903 13.151-1.403 2.806-4.025 3.868-7.867 3.16-3.842-0.694-6.464-2.452-7.867-5.258-0.694-1.402-3.842-5.441-9.44-12.102-5.586-6.675-11.525-14.214-17.818-22.632-6.294-8.431-12.404-16.324-18.344-23.692-5.952-7.368-9.965-12.457-12.063-15.262-6.294-11.932-12.928-15.787-19.929-11.578-4.891 2.806-9.257 5.795-13.099 8.941-3.842 3.16-7.513 5.795-11.013 7.907-6.99 4.904-8.038 11.224-3.147 18.946 11.892 14.03 22.369 27.01 31.455 38.942 7.698 9.82 15.04 19.3 22.028 28.426 6.988 9.112 11.184 14.384 12.574 15.786 1.402 2.807 0 4.21-4.196 4.21l-12.574 0c-3.5 0-8.562 0.17-15.209 0.523-6.635 0.354-12.758 0.171-18.344-0.523-5.598 0-10.135 1.402-13.636 4.208-3.488 2.806-4.536 6.32-3.134 10.528 0.695 2.807 1.036 7.016 1.036 12.628l0 12.639c0 3.501 1.049 5.442 3.147 5.782 2.098 0.354 4.549 0.525 7.342 0.525l60.812 0c8.392 0 12.587 1.756 12.587 5.271l0 19.995c0 3.514-0.708 5.271-2.098 5.271l-70.253 0c-4.196-0.708-6.988 0.342-8.391 3.147-1.39 2.818-2.439 5.966-3.147 9.479-0.695 3.515-0.695 6.844 0 10.004 0.708 3.147 1.049 5.783 1.049 7.894 0 9.113 4.55 13.676 13.636 13.676l62.91 0c3.488 0 5.585 0.537 6.293 1.587 0.695 1.048 1.049 3.329 1.049 6.844 0.694 3.501 0.865 9.821 0.524 18.947-0.354 9.125-0.524 15.078-0.524 17.884 0 7.723 4.536 11.591 13.623 11.591l33.553 0c5.6 0 8.393-1.757 8.393-5.271l0-42.103c0-7.015 3.146-10.528 9.439-10.528l9.428 0c4.891 0 10.318-0.171 16.259-0.524 5.939-0.354 11.709-0.524 17.295-0.524l13.635 0c9.782 0 14.673-3.515 14.673-10.529l0-23.155c0-6.32-3.488-9.479-10.489-9.479l-60.8 0c-7.001 1.403-10.488 0-10.488-4.209 0-2.098-0.171-4.733-0.524-7.893-0.354-3.16-0.525-6.137-0.525-8.943 0-2.806 1.22-4.916 3.672-6.319 2.438-1.402 5.061-2.11 7.866-2.11l61.862 0c6.988 0 10.476-2.452 10.476-7.37l0-25.252c0-2.807-1.219-5.612-3.671-8.432-2.439-2.806-5.415-4.209-8.903-4.209L587.704 558.417 587.704 558.417z" p-id="5282"></path></svg>