<?xml version="1.0" standalone="no"?><!DOCTYPE svg PUBLIC "-//W3C//DTD SVG 1.1//EN" "http://www.w3.org/Graphics/SVG/1.1/DTD/svg11.dtd"><svg t="1551176897249" class="icon" style="" viewBox="0 0 1024 1024" version="1.1" xmlns="http://www.w3.org/2000/svg" p-id="4243" xmlns:xlink="http://www.w3.org/1999/xlink" width="200" height="200"><defs><style type="text/css"></style></defs><path d="M867.84 103.424h-711.68c-29.184 0-53.248 24.064-53.248 53.248v711.68c0 29.184 24.064 53.248 53.248 53.248h711.68c29.184 0 53.248-24.064 53.248-53.248v-711.68c0-29.184-24.064-53.248-53.248-53.248z m-3.072 754.176c0 4.096-3.584 7.68-7.68 7.68H205.824c-25.6 0-46.08-20.992-46.08-46.08V206.336c0-25.6 20.992-46.08 46.08-46.08h612.352c25.6 0 46.08 20.992 46.08 46.08l0.512 651.264z" p-id="4244"></path><path d="M481.28 481.792H308.224c-16.896 0-30.72 13.824-30.72 30.72s13.824 30.72 30.72 30.72h407.04c16.896 0 30.72-13.824 30.72-30.72s-13.824-30.72-30.72-30.72H542.72" p-id="4245"></path></svg>