<?xml version="1.0" standalone="no"?><!DOCTYPE svg PUBLIC "-//W3C//DTD SVG 1.1//EN" "http://www.w3.org/Graphics/SVG/1.1/DTD/svg11.dtd"><svg t="1582795427156" class="icon" viewBox="0 0 1164 1024" version="1.1" xmlns="http://www.w3.org/2000/svg" p-id="3650" xmlns:xlink="http://www.w3.org/1999/xlink" width="145.5" height="128"><defs><style type="text/css"></style></defs><path d="M977.535 286.108v113.838h-75.892V286.108H787.806v-75.891h113.837V96.379h75.892v113.838h113.838v75.891H977.535zM754.3 466.275c-4.516 4.516-10.473 7.59-17.076 8.652l-218.682 35.176-34.872 219.061c-1.063 6.64-4.212 12.522-8.728 17.076-4.553 4.515-10.435 7.665-17.076 8.69-13.28 2.124-26.448-4.554-32.557-16.507l-101.62-198.647-220.427 33.886c-13.28 2.05-24.057-2.39-30.129-14.344-6.071-11.99-1.442-24.209 8.045-33.695l152.315-149.925-98.242-206.956c-6.11-11.991-4.971-27.7 4.553-37.187l-0.569-0.607c9.487-9.487 26.069-9.79 38.06-3.681l204.414 97.862 152.239-152.2c9.486-9.487 21.705-14.116 33.696-8.045 11.99 6.071 17.569 17.986 15.52 31.267l-34.417 219.745L746.672 416.87c11.991 6.109 18.518 19.086 16.431 32.33-1.062 6.678-4.288 12.522-8.803 17.075z m196.787 441.728l-53.656 53.655L548.633 612.86l53.655-53.655 348.799 348.798z" p-id="3651" fill="#2c2c2c"></path></svg>