<?xml version="1.0" standalone="no"?><!DOCTYPE svg PUBLIC "-//W3C//DTD SVG 1.1//EN" "http://www.w3.org/Graphics/SVG/1.1/DTD/svg11.dtd"><svg t="1547451877283" class="icon" style="" viewBox="0 0 1024 1024" version="1.1" xmlns="http://www.w3.org/2000/svg" p-id="2028" xmlns:xlink="http://www.w3.org/1999/xlink" width="200" height="200"><defs><style type="text/css"></style></defs><path d="M810.667 469.333c0-23.564 19.102-42.666 42.666-42.666 23.564 0 42.667 19.102 42.667 42.666v341.334C896 857.795 857.795 896 810.667 896H213.333C166.205 896 128 857.795 128 810.667V469.333c0-23.564 19.103-42.666 42.667-42.666s42.666 19.102 42.666 42.666v341.334h597.334V469.333zM260.52 298.667h500.7l-75.727-83.338a6.095 6.095 0 0 0-4.51-1.996H337.918c-1.758 0-3.43 0.76-4.588 2.083l-72.811 83.25z m-121.97 9.837l130.548-149.266A91.429 91.429 0 0 1 337.92 128h343.063a91.429 91.429 0 0 1 67.666 29.942L884.91 307.9A42.667 42.667 0 0 1 896 336.593v4.74C896 364.897 876.897 384 853.333 384H170.667C147.103 384 128 364.897 128 341.333v-4.74a42.667 42.667 0 0 1 10.55-28.09zM384 640c-23.564 0-42.667-19.103-42.667-42.667s19.103-42.666 42.667-42.666h256c23.564 0 42.667 19.102 42.667 42.666C682.667 620.897 663.564 640 640 640H384z" p-id="2029"></path></svg>