<?xml version="1.0" standalone="no"?><!DOCTYPE svg PUBLIC "-//W3C//DTD SVG 1.1//EN" "http://www.w3.org/Graphics/SVG/1.1/DTD/svg11.dtd"><svg t="1582528845154" class="icon" viewBox="0 0 1024 1024" version="1.1" xmlns="http://www.w3.org/2000/svg" p-id="6140" width="260" height="260" xmlns:xlink="http://www.w3.org/1999/xlink"><defs><style type="text/css"></style></defs><path d="M431.998666 720.016814h159.991151v287.984071h-159.991151z" fill="#515151" p-id="6141"></path><path d="M511.994242 512.028318m-79.995576 0a79.995575 79.995575 0 1 0 159.991151 0 79.995575 79.995575 0 1 0-159.991151 0Z" fill="#515151" p-id="6142"></path><path d="M799.978312 320.038938V64.053097h-127.99292v127.99292" fill="#515151" p-id="6143"></path><path d="M511.994242 608.023009c52.925073 0 95.99469-43.069618 95.99469-95.994691s-43.069618-95.99469-95.99469-95.99469-95.99469 43.069618-95.994691 95.99469 43.069618 95.99469 95.994691 95.994691z m0-159.991151c35.294048 0 63.99646 28.702412 63.99646 63.99646s-28.702412 63.99646-63.99646 63.996461-63.99646-28.702412-63.996461-63.996461 28.702412-63.99646 63.996461-63.99646z" fill="#515151" p-id="6144"></path><path d="M2.262436 491.709442A31.99823 31.99823 0 0 0 32.02079 512.028318h127.99292v479.973452a31.99823 31.99823 0 0 0 31.998231 31.99823h607.966371a31.99823 31.99823 0 0 0 31.998231-31.99823V512.028318h159.99115a31.99823 31.99823 0 0 0 21.822793-55.388936L831.976543 286.952768V48.053982a15.999115 15.999115 0 0 0-15.999116-15.999115h-127.99292a15.999115 15.999115 0 0 0-15.999115 15.999115v89.595044L533.817034 8.632163a31.934234 31.934234 0 0 0-50.237221 8.703518L10.261994 456.575386a31.99823 31.99823 0 0 0-7.999558 35.134056zM575.990702 960.00354h-127.992921v-223.987611h127.992921v223.987611z m127.99292-895.950443h95.99469v193.013324l-95.99469-89.595044V64.053097z m-190.677453 12.991281L910.788183 448.031858H799.978312a31.99823 31.99823 0 0 0-31.99823 31.99823v479.973452h-159.99115v-239.986726a15.999115 15.999115 0 0 0-15.999115-15.999115h-159.991151a15.999115 15.999115 0 0 0-15.999115 15.999115V960.00354H224.010171V480.030088a31.99823 31.99823 0 0 0-31.99823-31.99823H113.55228L513.274171 77.044378z" fill="#515151" p-id="6145"></path></svg>