<?xml version="1.0" standalone="no"?><!DOCTYPE svg PUBLIC "-//W3C//DTD SVG 1.1//EN" "http://www.w3.org/Graphics/SVG/1.1/DTD/svg11.dtd"><svg t="1574056929511" class="icon" viewBox="0 0 1024 1024" version="1.1" xmlns="http://www.w3.org/2000/svg" p-id="2679" xmlns:xlink="http://www.w3.org/1999/xlink" width="200" height="200"><defs><style type="text/css"></style></defs><path d="M960.6 315.9c-24.2 64.8-38.3 102.8-42.3 114.1-6.9 19.7-13.8 39.3-20.7 58.7-6.9 19.4-12.5 34.7-16.7 45.9-3.3 9.9-7.4 22-12.3 36.1-5.5 15.9-20.4 26.5-37.3 26.5h-497l10.9 68.3c1 6.4 6.5 11.1 13 11.1h424.6c22 0 39.9 17.7 40.2 39.7 0.2 21.7-17.1 39.5-38.8 39.7H308c-18.9 0-35.1-13.4-38.7-31.9l-88.8-459.7c-1.3-6.5-7-11.2-13.6-11.2h-52.4c-28.3 0-51.2-22.9-51.2-51.2s22.9-51.2 51.2-51.2h105.8c12.3 0 22.9 8.5 25.6 20.5 15 66.1 23.4 102.5 25.3 109.2H936c14.5 0 26.3 11.8 26.3 26.3 0 3.1-0.6 6.2-1.7 9.1zM361.4 779.8c11.4 0 22.2 2.1 32.5 6.2 10.2 4.1 19.1 9.9 26.6 17.2 7.5 7.4 13.5 16 18 26s6.8 20.6 6.8 31.8-2.3 21.8-6.8 31.8-10.5 18.7-18 26c-7.5 7.4-16.4 13.2-26.6 17.6-10.2 4.4-21 6.6-32.5 6.6-12 0-23.1-2.2-33.4-6.6-10.2-4.4-19.1-10.3-26.6-17.6-7.5-7.4-13.5-16-18-26s-6.8-20.6-6.8-31.8 2.3-21.8 6.8-31.8 10.5-18.7 18-26c7.5-7.4 16.4-13.1 26.6-17.2 10.3-4.1 21.4-6.2 33.4-6.2z m375.2 1.8c11.4 0 22.4 2.1 32.9 6.2s19.5 9.9 27.1 17.2c7.5 7.4 13.5 16 18 26s6.8 20.6 6.8 31.8-2.3 21.8-6.8 31.8-10.5 18.7-18 26c-7.5 7.4-16.5 13.2-27.1 17.6-10.5 4.4-21.5 6.6-32.9 6.6s-22.2-2.2-32.5-6.6-19.1-10.3-26.6-17.6-13.5-16-18-26-6.8-20.6-6.8-31.8 2.3-21.8 6.8-31.8 10.5-18.7 18-26 16.4-13.1 26.6-17.2 21.1-6.2 32.5-6.2z m106.3-563.9H512.8l119.1-116.5c13.8-13.5 29-20.4 45.5-20.7 16.5-0.3 31.7 6.3 45.5 19.9l120 117.3z" p-id="2680"></path></svg>