<?xml version="1.0" standalone="no"?><!DOCTYPE svg PUBLIC "-//W3C//DTD SVG 1.1//EN" "http://www.w3.org/Graphics/SVG/1.1/DTD/svg11.dtd"><svg t="1547119572666" class="icon" style="" viewBox="0 0 1024 1024" version="1.1" xmlns="http://www.w3.org/2000/svg" p-id="547" xmlns:xlink="http://www.w3.org/1999/xlink" width="200" height="200"><defs><style type="text/css"></style></defs><path d="M972.663467 402.295467 882.619733 402.295467C874.154667 384 862.071467 345.975467 846.711467 318.8736L910.267733 257.092267C930.338133 237.021867 930.4064 205.4144 910.336 185.412267L837.768533 113.2544C817.698133 93.184 785.2032 93.457067 765.1328 113.4592L705.1264 177.152C678.024533 161.792 640 149.845333 621.704533 141.380267L621.704533 51.336533C621.704533 23.005867 591.6672 0 563.336533 0L460.663467 0C432.3328 0 402.295467 23.005867 402.295467 51.336533L402.295467 141.380267C384 149.845333 345.975467 161.860267 318.8736 177.288533L257.092267 113.664C237.021867 93.5936 205.4144 93.5936 185.344 113.664L113.2544 186.231467C93.184 206.2336 93.3888 238.728533 113.4592 258.8672L177.152 318.8736C161.792 345.975467 149.845333 384 141.380267 402.295467L51.4048 402.295467C23.005867 402.295467 0 432.3328 0 460.663467L0 563.336533C0 591.6672 23.005867 621.704533 51.4048 621.704533L141.380267 621.704533C149.845333 640 161.928533 678.024533 177.288533 705.1264L113.732267 766.907733C93.5936 787.0464 93.5936 818.5856 113.664 838.656L186.231467 910.7456C206.2336 930.816 238.7968 930.6112 258.8672 910.5408L318.8736 846.848C345.975467 862.208 384 874.154667 402.295467 882.619733L402.295467 972.663467C402.295467 1001.0624 432.3328 1024 460.663467 1024L563.336533 1024C591.6672 1024 621.704533 1001.0624 621.704533 972.663467L621.704533 882.619733C640 874.154667 678.024533 862.071467 705.1264 846.711467L766.907733 910.267733C787.0464 930.338133 818.5856 930.338133 838.656 910.336L910.7456 837.768533C930.816 817.698133 930.6112 785.2032 910.5408 765.1328L846.848 705.1264C862.208 678.024533 874.154667 640 882.619733 621.704533L972.663467 621.704533C1001.0624 621.704533 1024 591.6672 1024 563.336533L1024 460.663467C1024 432.3328 1001.0624 402.295467 972.663467 402.295467L972.663467 402.295467 972.663467 402.295467ZM512 742.877867C384.477867 742.877867 281.053867 639.522133 281.053867 512 281.053867 384.4096 384.477867 281.053867 512 281.053867 639.5904 281.053867 742.946133 384.4096 742.946133 512 742.946133 639.522133 639.5904 742.877867 512 742.877867L512 742.877867 512 742.877867Z" p-id="548"></path></svg>